<?xml version="1.0" encoding="utf-8"?>
<!-- Generator: Adobe Illustrator 22.1.0, SVG Export Plug-In . SVG Version: 6.00 Build 0)  -->
<svg version="1.1" xmlns="http://www.w3.org/2000/svg" xmlns:xlink="http://www.w3.org/1999/xlink" x="0px" y="0px"
	 viewBox="0 0 1024 1024" style="enable-background:new 0 0 1024 1024;" xml:space="preserve">
<style type="text/css">
	.st0{fill:#32B2DA;}
	.st1{fill:#FFFFFF;}
	.st2{fill:none;stroke:#FFFFFF;stroke-width:30;stroke-linecap:round;stroke-linejoin:round;}
	.st3{fill:none;stroke:#FFFFFF;stroke-width:30;stroke-miterlimit:10;}
</style>
<g id="Слой_4">
	<rect class="st0" width="1024" height="1024"/>
</g>
<g id="Слой_2">
	<g id="XMLID_1_">
		<g>
			<path class="st1" d="M504.7,629.7c27.8,16.2,110.5,22.5,122.2,27.7c41.8,18.7,96.3-8.3,145.2,0.3V416H252v256.5
				c15-11.5,36-9.5,55-5.5c22,4,36.2,5.7,55.2-7.3C370.2,653.7,468.7,608.7,504.7,629.7z M1024,915.2V1024H814.8L511.8,707.5
				L208.7,1024H0V918.7l251.8-123.5c-13,0-23.5-10.5-23.5-23.5V415.5c-9.1-2-15.9-10.1-15.9-19.7v-87.6c0-11.2,9-20.2,20.2-20.2
				h12.8L776,194.4c6.9-1.2,13.5,3.4,14.8,10.4l7.1,40.5c1.2,6.9-3.4,13.5-10.3,14.8l-449.8,79.3l9.9,9.9h447.9
				c7,0,12.8,5.7,12.8,12.8v41.2c0,7-5.7,12.8-12.8,12.8h-0.3v356.5c0,13-10.5,23.5-23.5,23.5L1024,915.2z"/>
		</g>
		<g>
			<line class="st2" x1="252" y1="672.5" x2="252" y2="672.5"/>
			<path class="st2" d="M252,672.5c15-11.5,36-9.5,55-5.5c22,4,36.2,5.7,55.2-7.3c8-6,106.5-51,142.5-30
				c27.8,16.2,110.5,22.5,122.2,27.7c41.8,18.7,96.3-8.3,145.2,0.3V416H252V672.5z"/>
			<path class="st3" d="M771.8,796L1024,915.2V1024H814.8L511.8,707.5L208.7,1024H0V918.7l251.8-123.5c-13,0-23.5-10.5-23.5-23.5
				V415.5c-9.1-2-15.9-10.1-15.9-19.7v-87.6c0-11.2,9-20.2,20.2-20.2h12.8L776,194.4c6.9-1.2,13.5,3.4,14.8,10.4l7.1,40.5
				c1.2,6.9-3.4,13.5-10.3,14.8l-449.8,79.3l9.9,9.9h447.9c7,0,12.8,5.7,12.8,12.8v41.2c0,7-5.7,12.8-12.8,12.8h-0.3v356.5
				C795.3,785.5,784.7,796,771.8,796z"/>
		</g>
	</g>
	<circle class="st1" cx="512" cy="617" r="103.5"/>
</g>
</svg>
